PathFileType	4	(X/Y/Z)	pose_F01_0-96.trc
DataRate	CameraRate	NumFrames	NumMarkers	Units	OrigDataRate	OrigDataStartFrame	OrigNumFrames
30	30	5	21	m	30	48	96
Frame#	Time	CHip			RHip			RKnee			RAnkle			RBigToe			RSmallToe			RHeel			LHip			LKnee			LAnkle			LBigToe			LSmallToe			LHeel			Neck			Nose			RShoulder			RElbow			RWrist			LShoulder			LElbow			LWrist			
		X1	Y1	Z1	X2	Y2	Z2	X3	Y3	Z3	X4	Y4	Z4	X5	Y5	Z5	X6	Y6	Z6	X7	Y7	Z7	X8	Y8	Z8	X9	Y9	Z9	X10	Y10	Z10	X11	Y11	Z11	X12	Y12	Z12	X13	Y13	Z13	X14	Y14	Z14	X15	Y15	Z15	X16	Y16	Z16	X17	Y17	Z17	X18	Y18	Z18	X19	Y19	Z19	X20	Y20	Z20	X21	Y21	Z21	
48	1.6	-0.2288006820265576	1.899623685406214	-0.4616324990243913	-0.23920263488485521	1.897074185317726	-0.4092827291299472	-0.25516115155715186	1.7417956628042213	-0.37931432878575555	-0.22050606533921788	1.5601761556244726	-0.4893017472452851	-0.2663667628028408	1.5290933083590135	-0.5099319749993143				-0.22894115666493367	1.584530900282586	-0.4467268845871624	-0.21367586689365156	1.9027387184340347	-0.5183929280512283	-0.19310739067401436	1.749738003028708	-0.5086034893421436	-0.1582801838874253	1.627437244669474	-0.47198822104293764	-0.17862049051858425	1.5679204907238438	-0.5328967250935639	-0.15858220803911205	1.5897644621686222	-0.5284713948361767	-0.1582014225347573	1.6036737827781256	-0.48779213296781326	-0.2382608762393663	2.062527924580343	-0.47348156119642404	-0.2923995007858694	2.1251931458300723	-0.5174336681595323	-0.25111834182883935	2.0572621709687247	-0.39950289181489096	-0.26940265723288015	1.9721407480411448	-0.38260534223522136	-0.30319795553755813	1.9334192684299345	-0.3740277779944985	-0.22261453009820695	2.069703604357648	-0.5529824269593884	-0.22385894495124845	1.9960852321609543	-0.5740983463847625	-0.24214450088032943	1.9428666781954602	-0.581685577024708
49	1.6333333333333333	-0.21660420968872351	1.8997520383405726	-0.47221995908678543	-0.23132197914447658	1.8967956551253822	-0.4156290908759857	-0.24837355554706314	1.7460879211289633	-0.3828831738821813	-0.22050606533921788	1.5601761556244726	-0.4893017472452851	-0.2663667628028408	1.5290933083590135	-0.5099319749993143				-0.22894115666493367	1.584530900282586	-0.4467268845871624	-0.20004347978196685	1.9014683283565652	-0.5258229072689561	-0.18640618144855986	1.7567148148323983	-0.5036496412429591	-0.14975865435021582	1.6307965565829494	-0.4584028134587244	-0.17862049051858425	1.5679204907238438	-0.5328967250935639	-0.15858220803911205	1.5897644621686222	-0.5284713948361767	-0.1582014225347573	1.6036737827781256	-0.48779213296781326	-0.22645460832619055	2.062780213317639	-0.48657863402858287	-0.27543096358239655	2.1274947970559808	-0.5150543181364952	-0.24458299970989608	2.057163316758309	-0.41128377816985356	-0.2655857933179382	1.9795860807398926	-0.38902181196791796	-0.2936902063352676	1.9653099788825321	-0.42234304462561295	-0.21026570227683897	2.069932165571073	-0.5662720024555393	-0.2212045218174323	2.004599160204924	-0.5767059610389046	-0.23719771458051814	1.9833107695543362	-0.5993532394605345
50	1.6666666666666667	-0.2125269118303134	1.9039052458194095	-0.47759261396362046	-0.2253815628680695	1.8996848249011573	-0.4226750151394509	-0.24364594047659557	1.738275703269298	-0.38282131185181056	-0.22050606533921788	1.5601761556244726	-0.4893017472452851	-0.2663667628028408	1.5290933083590135	-0.5099319749993143				-0.22894115666493367	1.584530900282586	-0.4467268845871624	-0.19468883066464765	1.9070014153178259	-0.5366890741000546	-0.17425306419904946	1.7617934846121195	-0.49992934317830695	-0.15014475514187986	1.6376140102311783	-0.46150094480784204	-0.17862049051858425	1.5679204907238438	-0.5328967250935639	-0.15858220803911205	1.5897644621686222	-0.5284713948361767	-0.1582014225347573	1.6036737827781256	-0.48779213296781326	-0.21525361786167677	2.065308021696574	-0.4942431579444664	-0.263127897001199	2.1303245799513997	-0.5192151930451454	-0.22988098669924706	2.0602198482973053	-0.41521501667148136	-0.27355742845898634	1.994816381247843	-0.3855127009827203	-0.2880237613578856	2.0106761725805757	-0.42861470462859586	-0.196932384377061	2.0713353907575076	-0.5763030004048656	-0.2193727605224011	1.9982480089550119	-0.6060100242372279	-0.23225092828070681	2.023754860913212	-0.617020901896361
51	1.7	-0.2073318430718088	1.9063278621046655	-0.4791446721834199	-0.22311494549900548	1.9021297447967374	-0.4251614327470941	-0.24028321036976308	1.7494421668699125	-0.38826782891748696	-0.22050606533921788	1.5601761556244726	-0.4893017472452851	-0.2663667628028408	1.5290933083590135	-0.5099319749993143				-0.22894115666493367	1.584530900282586	-0.4467268845871624	-0.19348814758345503	1.9081225091294562	-0.5336544173367458	-0.17467466983125818	1.7716408200491283	-0.5188550278828951	-0.15053085593354387	1.644431463879407	-0.46459907615695967	-0.17862049051858425	1.5679204907238438	-0.5328967250935639	-0.15858220803911205	1.5897644621686222	-0.5284713948361767	-0.1582014225347573	1.6036737827781256	-0.48779213296781326	-0.2062694859828951	2.0680275837312574	-0.5003167772938188	-0.25220518994392366	2.130384476851645	-0.5267840125336968	-0.2229386111689629	2.0625049720603394	-0.4185163133718583	-0.27723706974181933	2.0178324010649757	-0.4024851900232619	-0.2823573163805036	2.0560423662786196	-0.43488636463157876	-0.18759082111979783	2.0703115729655583	-0.5816401410542642	-0.21845642090705214	2.0111677237215133	-0.6252401065052354	-0.22730414198089552	2.0641989522720885	-0.6346885643321877
52	1.7333333333333334	-0.2044021551722509	1.9054248391319852	-0.4866589952602675	-0.22121410737016192	1.9035658134168523	-0.4279228497338897	-0.23231115953672146	1.7507261384162267	-0.40159203710421926	-0.22050606533921788	1.5601761556244726	-0.4893017472452851	-0.2663667628028408	1.5290933083590135	-0.5099319749993143				-0.22894115666493367	1.584530900282586	-0.4467268845871624	-0.1896098760354504	1.9070552345832188	-0.5381020969252676	-0.16971416717323398	1.7654190885069532	-0.5054566324801187	-0.15045399610708368	1.643856885824027	-0.46469460183660444	-0.17862049051858425	1.5679204907238438	-0.5328967250935639	-0.15858220803911205	1.5897644621686222	-0.5284713948361767	-0.1582014225347573	1.6036737827781256	-0.48779213296781326	-0.19821274783239282	2.0692102982991893	-0.5089629175461889	-0.24413878192618174	2.1325761267229386	-0.535787680542955	-0.21335072994823426	2.0667269236347043	-0.4305086821108425	-0.27916134497834655	2.039450720848009	-0.3991911080165246	-0.2766908714031216	2.101408559976663	-0.44115802463456166	-0.17868700538601423	2.0701621154030403	-0.5791408862543269	-0.23433771600757258	2.0286567371122377	-0.6268587254428765	-0.22235735568108422	2.1046430436309644	-0.6523562267680142
